<?xml version="1.0" standalone="no"?><!-- Generator: Gravit.io --><svg xmlns="http://www.w3.org/2000/svg" xmlns:xlink="http://www.w3.org/1999/xlink" style="isolation:isolate" viewBox="0 0 375 650" width="375" height="650"><defs><clipPath id="_clipPath_AFSY3CJzrlzgP5G5PNkIdD0I172holMz"><rect width="375" height="650"/></clipPath></defs><g clip-path="url(#_clipPath_AFSY3CJzrlzgP5G5PNkIdD0I172holMz)"><g opacity="0.37"><path d=" M -161.808 263.312 L -140.862 208.831 L -119.916 154.351 C -116.183 144.642 -108.177 143.583 -102.049 151.987 L -68.276 198.298 L -34.503 244.609 C -28.375 253.012 -31.756 261.048 -42.049 262.541 L -95.985 270.368 L -149.921 278.195 C -160.214 279.689 -165.541 273.02 -161.808 263.312 Z " fill="rgb(235,235,235)"/></g><g style="mix-blend-mode:normal;" opacity="0.25"><path d="M 314.416 432.781 L 316.857 436.294 C 324.468 447.248 321.755 462.32 310.801 469.931 L 252.582 510.386 C 241.629 517.997 226.556 515.283 218.945 504.33 L 216.504 500.817 C 208.893 489.864 211.607 474.791 222.56 467.18 L 280.78 426.726 C 291.733 419.114 306.805 421.828 314.416 432.781 Z" style="stroke:none;fill:#EBEBEB;stroke-miterlimit:10;"/></g><g opacity="0.25"><ellipse vector-effect="non-scaling-stroke" cx="66.7883031206706" cy="493.158203125" rx="40.211696879329395" ry="37.841796875" fill="rgb(235,235,235)"/></g><g opacity="0.25"><ellipse vector-effect="non-scaling-stroke" cx="389.6165051540262" cy="695.2055534052344" rx="76.38349484597381" ry="72.20555340523435" fill="rgb(235,235,235)"/></g><g opacity="0.25"><ellipse vector-effect="non-scaling-stroke" cx="294.6756296600112" cy="140.7805708831074" rx="32.99359146889998" ry="32.3059615081074" fill="rgb(235,235,235)"/></g><g opacity="0.25"><ellipse vector-effect="non-scaling-stroke" cx="52.88400432406197" cy="68.74587071765424" rx="32.99359146889998" ry="32.3059615081074" fill="rgb(235,235,235)"/></g><g style="mix-blend-mode:normal;" opacity="0.25"><path d="M 231.221 574 L 231.221 574 C 251.164 574 267.354 591.627 267.354 613.339 L 267.354 764.661 C 267.354 786.373 251.164 804 231.221 804 L 231.221 804 C 211.279 804 195.089 786.373 195.089 764.661 L 195.089 613.339 C 195.089 591.627 211.279 574 231.221 574 Z" style="stroke:none;fill:#EBEBEB;stroke-miterlimit:10;"/></g><g style="mix-blend-mode:normal;" opacity="0.25"><path d="M 103.555 355.897 L 103.555 355.897 C 111.84 367.82 104.669 387.156 87.552 399.05 L -89.524 522.095 C -106.641 533.989 -127.264 533.965 -135.549 522.043 L -135.549 522.043 C -143.834 510.12 -136.663 490.783 -119.546 478.889 L 57.53 355.845 C 74.647 343.951 95.27 343.974 103.555 355.897 Z" style="stroke:none;fill:#EBEBEB;stroke-miterlimit:10;"/></g><g style="mix-blend-mode:normal;" opacity="0.25"><path d="M 588.675 247.304 L 588.675 247.304 C 596.959 259.227 589.789 278.563 572.672 290.457 L 395.595 413.501 C 378.478 425.395 357.855 425.372 349.571 413.449 L 349.571 413.449 C 341.286 401.526 348.457 382.19 365.573 370.296 L 542.65 247.252 C 559.767 235.358 580.39 235.381 588.675 247.304 Z" style="stroke:none;fill:#EBEBEB;stroke-miterlimit:10;"/></g><g style="mix-blend-mode:normal;" opacity="0.25"><path d="M 176.231 531.957 L 176.231 531.957 C 184.515 543.88 177.345 563.217 160.228 575.111 L -16.849 698.155 C -33.966 710.049 -54.589 710.026 -62.873 698.103 L -62.873 698.103 C -71.158 686.18 -63.988 666.844 -46.871 654.95 L 130.206 531.905 C 147.323 520.011 167.946 520.035 176.231 531.957 Z" style="stroke:none;fill:#EBEBEB;stroke-miterlimit:10;"/></g><g style="mix-blend-mode:normal;" opacity="0.25"><path d="M 530.007 -108.103 L 530.007 -108.103 C 538.292 -96.18 531.121 -76.844 514.004 -64.95 L 336.928 58.095 C 319.811 69.989 299.188 69.965 290.903 58.043 L 290.903 58.043 C 282.618 46.12 289.789 26.783 306.906 14.889 L 483.982 -108.155 C 501.099 -120.049 521.722 -120.026 530.007 -108.103 Z" style="stroke:none;fill:#EBEBEB;stroke-miterlimit:10;"/></g><g style="mix-blend-mode:normal;" opacity="0.25"><path d="M 262.257 76.164 L 262.257 76.164 C 270.542 88.087 266.851 105.005 254.021 113.92 L 166.178 174.959 C 153.348 183.874 136.206 181.433 127.921 169.51 L 127.921 169.51 C 119.636 157.587 123.326 140.669 136.156 131.754 L 223.999 70.715 C 236.829 61.799 253.972 64.241 262.257 76.164 Z" style="stroke:none;fill:#EBEBEB;stroke-miterlimit:10;"/></g><g style="mix-blend-mode:normal;" opacity="0.25"><path d="M 86.015 182.044 L 86.015 182.044 C 94.3 193.967 87.129 213.303 70.012 225.197 L -107.064 348.242 C -124.181 360.136 -144.804 360.112 -153.089 348.189 L -153.089 348.189 C -161.373 336.266 -154.203 316.93 -137.086 305.036 L 39.991 181.992 C 57.108 170.098 77.731 170.121 86.015 182.044 Z" style="stroke:none;fill:#EBEBEB;stroke-miterlimit:10;"/></g><g opacity="0.18"><path d=" M 277.489 385.251 L 223.996 367.758 C 217.283 365.562 207.342 367.346 201.81 371.739 L 157.283 407.1 C 151.752 411.492 147.231 409.324 147.195 402.261 L 146.893 344.134 C 146.857 337.071 142.123 328.057 136.33 324.017 L 89.789 291.561 C 83.995 287.52 84.722 282.399 91.411 280.131 L 144.724 262.055 C 151.413 259.787 158.411 252.43 160.34 245.635 L 176.179 189.871 C 178.109 183.076 183.017 182.221 187.132 187.961 L 220.584 234.629 C 224.699 240.37 233.771 244.849 240.831 244.626 L 296.895 242.851 C 303.955 242.628 306.395 247.142 302.34 252.926 L 269.37 299.96 C 265.316 305.744 263.922 315.851 266.259 322.517 L 285.418 377.152 C 287.755 383.817 284.202 387.446 277.489 385.251 Z " fill="rgb(235,235,235)"/></g><g style="mix-blend-mode:normal;" opacity="0.25"><path d="M 570.218 63.244 L 570.218 63.244 C 578.503 75.167 571.333 94.503 554.216 106.397 L 377.139 229.441 C 360.022 241.335 339.399 241.312 331.114 229.389 L 331.114 229.389 C 322.83 217.466 330 198.13 347.117 186.236 L 524.194 63.192 C 541.311 51.298 561.934 51.321 570.218 63.244 Z" style="stroke:none;fill:#EBEBEB;stroke-miterlimit:10;"/></g><g style="mix-blend-mode:normal;" opacity="0.25"><path d="M 342.68 -138.663 L 342.68 -138.663 C 350.965 -126.74 343.794 -107.404 326.677 -95.51 L 149.601 27.535 C 132.484 39.429 111.861 39.405 103.576 27.482 L 103.576 27.482 C 95.291 15.56 102.462 -3.777 119.579 -15.671 L 296.655 -138.715 C 313.772 -150.609 334.395 -150.586 342.68 -138.663 Z" style="stroke:none;fill:#EBEBEB;stroke-miterlimit:10;"/></g></g></svg>